<svg id="visual" viewBox="0 0 900 600" width="900" height="600" xmlns="http://www.w3.org/2000/svg" xmlns:xlink="http://www.w3.org/1999/xlink" version="1.1"><rect x="0" y="0" width="900" height="600" fill="#001220"></rect><defs><linearGradient id="grad1_0" x1="33.3%" y1="100%" x2="100%" y2="0%"><stop offset="20%" stop-color="#6600ff" stop-opacity="1"></stop><stop offset="80%" stop-color="#6600ff" stop-opacity="1"></stop></linearGradient></defs><defs><linearGradient id="grad1_1" x1="33.3%" y1="100%" x2="100%" y2="0%"><stop offset="20%" stop-color="#6600ff" stop-opacity="1"></stop><stop offset="80%" stop-color="#001220" stop-opacity="1"></stop></linearGradient></defs><defs><linearGradient id="grad2_0" x1="0%" y1="100%" x2="66.7%" y2="0%"><stop offset="20%" stop-color="#6600ff" stop-opacity="1"></stop><stop offset="80%" stop-color="#6600ff" stop-opacity="1"></stop></linearGradient></defs><defs><linearGradient id="grad2_1" x1="0%" y1="100%" x2="66.7%" y2="0%"><stop offset="20%" stop-color="#001220" stop-opacity="1"></stop><stop offset="80%" stop-color="#6600ff" stop-opacity="1"></stop></linearGradient></defs><g transform="translate(900, 600)"><path d="M-405.6 0C-393 -69.4 -380.4 -138.8 -348.1 -201C-315.9 -263.2 -264.1 -318.4 -202.8 -351.3C-141.5 -384.2 -70.8 -394.9 0 -405.6L0 0Z" fill="#003299"></path><path d="M-202.8 0C-196.5 -34.7 -190.2 -69.4 -174.1 -100.5C-158 -131.6 -132.1 -159.2 -101.4 -175.6C-70.8 -192.1 -35.4 -197.5 0 -202.8L0 0Z" fill="#6600ff"></path></g><g transform="translate(0, 0)"><path d="M405.6 0C401.9 82.9 398.2 165.8 351.3 202.8C304.4 239.9 214.2 231 148.5 257.2C82.8 283.4 41.4 344.5 0 405.6L0 0Z" fill="#003299"></path><path d="M202.8 0C201 41.4 199.1 82.9 175.6 101.4C152.2 119.9 107.1 115.5 74.3 128.6C41.4 141.7 20.7 172.2 0 202.8L0 0Z" fill="#6600ff"></path></g></svg>