<?xml version="1.0" standalone="no"?>
<!DOCTYPE svg PUBLIC "-//W3C//DTD SVG 20010904//EN"
 "http://www.w3.org/TR/2001/REC-SVG-20010904/DTD/svg10.dtd">
<svg version="1.0" xmlns="http://www.w3.org/2000/svg"
 width="225.000000pt" height="225.000000pt" viewBox="0 0 225.000000 225.000000"
 preserveAspectRatio="xMidYMid meet">

<g transform="translate(0.000000,225.000000) scale(0.100000,-0.100000)"
fill="#000000" stroke="none">
<path d="M0 1125 l0 -1125 541 0 c433 0 540 3 536 13 -2 7 -37 63 -76 125 -39
62 -71 117 -71 121 0 5 23 23 50 41 68 44 125 111 149 176 39 102 43 169 35
567 l-7 377 55 0 c30 0 122 -3 205 -6 l150 -7 -4 -429 c-3 -392 -5 -437 -23
-512 -20 -79 -65 -189 -92 -222 -45 -56 -139 -150 -187 -186 -31 -23 -60 -46
-66 -50 -5 -4 230 -8 523 -8 l532 0 0 1125 0 1125 -1125 0 -1125 0 0 -1125z
m730 -449 c0 -19 -5 -38 -11 -41 -15 -10 -17 -4 -11 38 5 47 22 49 22 3z m75
4 c20 -38 19 -43 -5 -35 -12 4 -27 2 -35 -5 -23 -19 -25 4 -3 38 11 18 22 32
24 32 2 0 10 -13 19 -30z m85 25 c0 -3 -7 -17 -16 -30 -15 -23 -15 -25 2 -25
21 0 11 -13 -13 -16 -28 -4 -35 7 -18 32 14 21 14 24 0 24 -8 0 -15 5 -15 10
0 6 14 10 30 10 17 0 30 -2 30 -5z m70 -3 c0 -4 -7 -18 -16 -30 -14 -20 -14
-22 0 -22 9 0 16 -4 16 -8 0 -5 -14 -7 -30 -4 -29 4 -30 6 -16 26 12 20 12 24
-2 34 -14 9 -12 11 16 11 17 1 32 -2 32 -7z"/>
</g>
</svg>
